<?xml version="1.0" standalone="no"?>
<!DOCTYPE svg PUBLIC "-//W3C//DTD SVG 20010904//EN"
 "http://www.w3.org/TR/2001/REC-SVG-20010904/DTD/svg10.dtd">
<svg version="1.0" xmlns="http://www.w3.org/2000/svg"
 width="260.000000pt" height="260.000000pt" viewBox="0 0 260.000000 260.000000"
 preserveAspectRatio="xMidYMid meet">
<metadata>
Created by potrace 1.11, written by Peter Selinger 2001-2013
</metadata>
<g transform="translate(0.000000,260.000000) scale(0.100000,-0.100000)"
fill="#000000" stroke="none">
<path d="M1585 2273 c-11 -3 -81 -25 -155 -49 -291 -97 -347 -97 -630 1 -195
68 -340 57 -478 -35 -118 -79 -232 -229 -278 -366 -48 -145 -21 -294 71 -388
79 -80 167 -97 361 -71 148 20 224 15 319 -19 85 -31 155 -77 214 -142 62 -68
93 -122 186 -325 92 -201 125 -256 197 -334 80 -87 146 -117 264 -123 60 -3
117 1 168 12 148 30 235 17 322 -49 67 -51 125 -75 181 -75 172 0 304 198 263
396 -25 122 -65 171 -232 285 -134 92 -178 142 -204 229 -22 73 -14 171 26
330 17 69 34 154 37 190 17 219 -146 452 -366 520 -60 19 -209 26 -266 13z"/>
</g>
</svg>
