<?xml version="1.0" encoding="utf-8"?>
<!-- Generator: Adobe Illustrator 23.0.1, SVG Export Plug-In . SVG Version: 6.00 Build 0)  -->
<svg version="1.1" id="Layer_1" xmlns="http://www.w3.org/2000/svg" xmlns:xlink="http://www.w3.org/1999/xlink" x="0px" y="0px"
	 viewBox="0 0 1917.47 1568.84" style="enable-background:new 0 0 1917.47 1568.84;" xml:space="preserve">
<style type="text/css">
	.st0{fill:#F16979;}
</style>
<path class="st0" d="M884.46,205.57c89.34,53.04,57.67,129.4,144.79,175.5c149.42,79.07,291.02-119.96,522.56-57.83
	c29.72,7.97,134.62,37.78,201.39,136.81c9.18,13.61,67.35,102.46,52.65,206.22c-23.54,166.16-221.26,280.82-381.72,311.52
	c-259.85,49.71-352.62-134.04-530.9-74.59c-256.77,85.63-222.61,519.64-390.49,539.67C353.5,1460.67,135.4,1140.5,142.96,828.6
	c0.87-35.75,10.61-279.32,203.33-463.34C487.04,230.87,736.43,117.68,884.46,205.57z"/>
</svg>
