<?xml version="1.0" encoding="utf-8"?>
<!-- Generator: Adobe Illustrator 23.0.4, SVG Export Plug-In . SVG Version: 6.00 Build 0)  -->
<svg version="1.1" id="Layer_1" xmlns="http://www.w3.org/2000/svg" xmlns:xlink="http://www.w3.org/1999/xlink" x="0px" y="0px"
	 viewBox="0 0 4390 1162" enable-background="new 0 0 4390 1162" xml:space="preserve">
<path fill="none" stroke="#F16A79" stroke-width="4.386" stroke-miterlimit="10" d="M171.7,814.2c2.1-196,545-520.1,1072.4-315.9
	c180.5,69.9,258.8,162.8,447.7,154.1c276.8-12.8,375.8-224.7,609.6-356.6c476.1-268.5,569.2,326.6,1106.5,162
	C3834.5,327.2,4050-132,4184.7,117.7c76.5,141.6,98.1,458,41.7,656.1c-99.4,348.9-392.3,159.8-1042.1,178.2
	c-586.7,16.6-540.2,176.3-924.6,113.4c-556.8-91.1-609.1-418.6-966.3-275.4c-273.5,109.6-382.6,357.6-682.1,324
	C408.3,1091.2,170.3,944.9,171.7,814.2z"/>
</svg>
