<?xml version="1.0" encoding="utf-8"?>
<!-- Generator: Adobe Illustrator 23.0.1, SVG Export Plug-In . SVG Version: 6.00 Build 0)  -->
<svg version="1.1" id="Layer_1" xmlns="http://www.w3.org/2000/svg" xmlns:xlink="http://www.w3.org/1999/xlink" x="0px" y="0px"
	 viewBox="0 0 2163.51 2042.24" style="enable-background:new 0 0 2163.51 2042.24;" xml:space="preserve">
<style type="text/css">
	.st0{fill:#F16979;}
</style>
<path class="st0" d="M448.57,194.47c109.42-110.48,353.12-31.43,368.26-26.33c39.51,13.31,69.96,29.38,95.02,47.17
	c135.32,96.04,215.09,177.23,260.38,220.47c191.14,182.49,449.69-17.95,662.52,140.4c162.06,120.57,198.69,375.58,157.95,561.61
	c-57.89,264.39-288.9,467.76-507.22,482.63c-185.61,12.64-220.73-116.07-396.62-100.91c-279.8,24.1-339.24,362.6-556.57,355.39
	c-175.09-5.8-358.08-232.86-354.22-429.98c3.92-200.08,197.33-215.68,283.37-465.08C583.43,626.21,303.95,340.49,448.57,194.47z"/>
</svg>
