<svg width="682.51" height="691.24" xmlns="http://www.w3.org/2000/svg">
 <style type="text/css">.st0{fill:#F16979;}</style>

 <g>
  <title>background</title>
  <rect fill="none" id="canvas_background" height="693.24" width="684.51" y="-1" x="-1"/>
 </g>
 <g>
  <title>Layer 1</title>
  <path stroke="null" id="svg_1" d="m99.28218,28.960985c39.166829,-43.019133 126.399111,-12.238336 131.818466,-10.252478c14.142583,5.1827 25.042144,11.440099 34.012357,18.367239c48.43772,37.39643 76.991348,69.010509 93.202879,85.847469c68.418459,71.058668 160.96629,-6.989441 237.148672,54.6695c58.009288,46.948017 71.120977,146.244805 56.538116,218.681893c-20.721694,102.94921 -103.411597,182.138213 -181.559122,187.928352c-66.438998,4.921813 -79.010183,-45.195789 -141.969912,-39.292729c-100.154257,9.384152 -121.430773,141.190602 -199.223927,138.383144c-62.67337,-2.258427 -128.17454,-90.671935 -126.792855,-167.42729c1.403162,-77.907931 70.634166,-83.98232 101.432137,-181.094665c43.666254,-137.697829 -56.373459,-248.952597 -4.606809,-305.810434z" class="st0"/>
 </g>
</svg>