<?xml version="1.0" encoding="utf-8"?>
<!-- Generator: Adobe Illustrator 23.0.4, SVG Export Plug-In . SVG Version: 6.00 Build 0)  -->
<svg version="1.1" id="Layer_1" xmlns="http://www.w3.org/2000/svg" xmlns:xlink="http://www.w3.org/1999/xlink" x="0px" y="0px"
	 viewBox="0 0 5570 1162" enable-background="new 0 0 5570 1162" xml:space="preserve">
<path fill="none" stroke="#CDDE62" stroke-width="4.386" stroke-miterlimit="10" d="M1150.9,344.6
	C2048.3,226.2,2227.6-61,2719.6,71.9c308.8,83.4,264.4,203.6,721.4,360.7c462.1,158.8,878.4,163.4,960.5,163.6
	c569.6,1.4,855.8-166.9,981.4-8.4c71.2,89.9,58.9,244.4-4.2,343.9c-114.8,181.1-417.2,211.1-1111.5,130
	C3176.9,934.4,3158.9,770.9,2484.7,734.6c-676.5-36.4-834.7,118.6-1509.9-4.2c-418.7-76.2-863.2-227.7-851.4-306.2
	C134.3,351.3,526.9,426.9,1150.9,344.6z"/>
</svg>
