<svg width="1234" height="655" xmlns="http://www.w3.org/2000/svg">

 <g>
  <title>background</title>
  <rect fill="none" id="canvas_background" height="657" width="1236" y="-1" x="-1"/>
 </g>
 <g>
  <title>Layer 1</title>
  <path id="svg_1" d="m39.972987,172.239553c81.9,-218.5 396.8,-192.6 563,-109.4c46.8,23.4 88,61 140.6,70.3c46.5,8.2 93.5,-3.2 137.6,-17.7c71.4,-23.5 163.5,-86.6 242,-68.4c82.5,19.2 87.8,127 79.8,195.2c-11.7,100.7 -74.9,180.9 -152.7,241.6c-152.7,119.1 -352.6,181.8 -546.1,166.8c-119.9,-9.2 -237.4,-51.7 -326.2,-134.4c-85.4,-79.6 -183.8,-221.6 -138,-344z" fill="#F16979"/>
 </g>
</svg>