<svg width="1850.0000000000002" height="876" xmlns="http://www.w3.org/2000/svg">

 <g>
  <title>background</title>
  <rect fill="none" id="canvas_background" height="878" width="1852" y="-1" x="-1"/>
 </g>
 <g>
  <title>Layer 1</title>
  <path id="svg_1" d="m1946.3,2241.5c-148.4,-11.9 -294.6,34.1 -435.8,81.3c-141.2,47.1 -285.6,96.6 -434.4,92.1c-121.4,-3.7 -245.4,-43.2 -361.8,-8.5c-92,27.4 -164.9,98.7 -216.7,186.3l0,72.5l0,192c361,203.9 895.3,-14.6 1295,9.5c173.3,10.5 342.8,79.1 479.7,188l0,-389.7l0,-238.8c-64.3,-109.5 -196.7,-174.4 -326,-184.7z" fill="#F16979"/>
  <path id="svg_2" d="m33.714569,240.63562c0,0 119.2,-179.6 553.4,-88.7c17.5,3.7 30.7,6.8 38.6,8.7c49.2,11.7 73,22.3 126,26c155.6,11 249.8,-59.1 377,-109c94.9,-37.2 306.2,-120.1 462,-51c223.6,99.3 322.1,509.5 192,642c-63.4,64.5 -139,20.4 -369,22c-444.8,3.1 -546.5,196.6 -909,148c-108.5,-14.6 -260,-37.1 -373,-160c-105.8,-115.1 -177.1,-317.2 -98,-438z" fill="#F16979"/>
 </g>
</svg>