<svg width="1280" height="654" xmlns="http://www.w3.org/2000/svg">

 <g>
  <title>background</title>
  <rect fill="none" id="canvas_background" height="656" width="1282" y="-1" x="-1"/>
 </g>
 <g>
  <title>Layer 1</title>
  <path id="svg_1" d="m1946.3,2241.5c-148.4,-11.9 -294.6,34.1 -435.8,81.3c-141.2,47.1 -285.6,96.6 -434.4,92.1c-121.4,-3.7 -245.4,-43.2 -361.8,-8.5c-92,27.4 -164.9,98.7 -216.7,186.3l0,72.5l0,192c361,203.9 895.3,-14.6 1295,9.5c173.3,10.5 342.8,79.1 479.7,188l0,-389.7l0,-238.8c-64.3,-109.5 -196.7,-174.4 -326,-184.7z" fill="#F16979"/>
  <path stroke="null" id="svg_2" d="m181.144266,147.517217c127.705666,-112.327296 351.253059,-178.687016 501.076047,-98.209658c38.986466,20.937753 95.279423,63.699875 178.063184,61.381036c61.478657,-1.705029 73.099623,-26.598449 128.080536,-30.690518c71.537665,-5.31969 180.937186,24.552414 237.417578,124.808107c75.41132,133.87886 -4.81083,284.125996 -8.746963,291.218916c-44.796948,80.818364 -127.455753,138.993946 -210.551905,145.268452c-91.468246,6.888316 -129.580015,-53.196898 -292.398491,-65.473105c-19.743146,-1.500425 -46.608819,-4.023868 -82.408891,-1.295822c-56.230479,4.296673 -96.903859,19.028121 -167.004523,29.190093c-43.859774,6.342707 -74.973972,8.047736 -121.082965,9.616362c-168.504002,5.797098 -281.7147,9.684563 -323.012863,-50.468852c-58.854568,-85.797048 29.739676,-300.35787 160.569257,-415.345011z" fill="#F16979"/>
 </g>
</svg>