<?xml version="1.0" encoding="utf-8"?>
<!-- Generator: Adobe Illustrator 23.0.1, SVG Export Plug-In . SVG Version: 6.00 Build 0)  -->
<svg version="1.1" id="Layer_1" xmlns="http://www.w3.org/2000/svg" xmlns:xlink="http://www.w3.org/1999/xlink" x="0px" y="0px"
	 viewBox="0 0 5921.67 1420.77" style="enable-background:new 0 0 5921.67 1420.77;" xml:space="preserve">
<style type="text/css">
	.st0{fill:none;stroke:#F26B7A;stroke-width:4.386;stroke-miterlimit:10;}
</style>
<path class="st0" d="M1270.46,472.74c897.4-118.4,1076.65-405.55,1568.62-272.62c308.78,83.43,264.4,203.64,721.4,360.7
	c462.09,158.81,878.37,163.37,960.46,163.57c569.59,1.43,855.77-166.91,981.44-8.39c71.23,89.86,58.89,244.39-4.19,343.92
	c-114.78,181.09-417.23,211.15-1111.45,130.02C3296.43,1062.53,3278.46,899.1,2604.21,862.8c-676.5-36.42-834.73,118.6-1509.9-4.19
	c-418.72-76.16-863.17-227.69-851.42-306.17C253.83,479.45,646.41,555.08,1270.46,472.74z"/>
</svg>
