<?xml version="1.0" encoding="utf-8"?>
<!-- Generator: Adobe Illustrator 23.0.1, SVG Export Plug-In . SVG Version: 6.00 Build 0)  -->
<svg version="1.1" id="Layer_2" xmlns="http://www.w3.org/2000/svg" xmlns:xlink="http://www.w3.org/1999/xlink" x="0px" y="0px"
	 viewBox="0 0 899.06 714.92" style="enable-background:new 0 0 899.06 714.92;" xml:space="preserve">
<style type="text/css">
	.st0{fill:#F16979;}
</style>
<g>
	<path class="st0" d="M814.6,389.13l-82.86-92.83c-10.28-4.36-20.87-7.94-31.68-10.84l116.62,130.67
		C816.9,407,816.24,397.96,814.6,389.13z"/>
	<path class="st0" d="M814.5,438.17L673.02,279.65c-8.21-1.36-16.5-2.41-24.83-3.16L809.93,457.7
		C811.84,451.23,813.38,444.71,814.5,438.17z"/>
	<path class="st0" d="M803.73,475.25L625.1,275.11c-7.39-0.23-14.77-0.27-22.14-0.15l193.26,216.53
		C798.98,486.17,801.49,480.75,803.73,475.25z"/>
	<path class="st0" d="M787.66,506.4L581.78,275.72c-6.93,0.36-13.91,0.79-20.92,1.22l217.23,243.39
		C781.47,515.82,784.66,511.16,787.66,506.4z"/>
	<path class="st0" d="M767.66,533.13L540.05,278.11c-7.15,0.35-14.29,0.6-21.39,0.69l237.6,266.22
		C760.21,541.23,764.01,537.26,767.66,533.13z"/>
	<path class="st0" d="M744.04,555.82L496.45,278.4c-8.19-0.43-16.29-1.22-24.24-2.5l258.55,289.68
		C735.3,562.56,739.74,559.3,744.04,555.82z"/>
	<path class="st0" d="M716.48,574.09L444.05,268.84c-7.65-2.71-15.1-6.08-22.29-10.28c-9.69-5.67-18.45-12.62-26.82-20.09
		l305.91,342.75C706.15,579.17,711.37,576.78,716.48,574.09z"/>
	<path class="st0" d="M683.76,586.58L320.21,179.25c-9.33-3.88-19.11-6.5-29.09-7.94l373.35,418.31
		C670.97,589.13,677.41,588.1,683.76,586.58z"/>
	<path class="st0" d="M642.18,589.14L268.15,170.06c-6.74,0.21-13.48,0.91-20.15,2.08l365.66,409.7
		C623.15,585.6,632.69,587.99,642.18,589.14z"/>
	<path class="st0" d="M450.22,425.25c1.05,0.46,2.09,0.95,3.11,1.44l-223.31-250.2c-5.61,1.74-11.11,3.81-16.47,6.21l209.28,234.48
		C432.15,418.73,441.29,421.3,450.22,425.25z"/>
	<path class="st0" d="M399.27,415.27L198.62,190.45c-4.76,2.84-9.33,5.94-13.69,9.32l193.16,216.42
		C385.2,415.57,392.27,415.22,399.27,415.27z"/>
	<path class="st0" d="M358.26,418.47l-185.6-207.95c-3.91,3.9-7.57,8.04-10.92,12.43l177.11,198.44
		C345.34,420.37,351.82,419.36,358.26,418.47z"/>
	<path class="st0" d="M319.65,424.35L152.49,237.07c-2.28,4.11-4.31,8.37-6.07,12.79c-0.47,1.18-0.92,2.37-1.34,3.56l154.84,173.49
		C306.49,426.21,313.07,425.32,319.65,424.35z"/>
	<path class="st0" d="M279.41,428.42L140.12,272.36c-1.29,7.52-1.85,15.14-1.7,22.76L256.9,427.86
		C264.35,428.53,271.86,428.67,279.41,428.42z"/>
	<path class="st0" d="M230.51,422.78l-88.3-98.94c4.54,18.69,12.98,36.57,24.48,52.08l17.29,19.37
		C197.33,407.7,213.09,417.3,230.51,422.78z"/>
</g>
</svg>
