<?xml version="1.0" encoding="utf-8"?>
<!-- Generator: Adobe Illustrator 23.0.1, SVG Export Plug-In . SVG Version: 6.00 Build 0)  -->
<svg version="1.1" id="Layer_1" xmlns="http://www.w3.org/2000/svg" xmlns:xlink="http://www.w3.org/1999/xlink" x="0px" y="0px"
	 viewBox="0 0 2728.42 2627.36" style="enable-background:new 0 0 2728.42 2627.36;" xml:space="preserve">
<style type="text/css">
	.st0{fill:#CCDD60;}
</style>
<path class="st0" d="M1202.06,641.97c-41.9,15.83-87.56,24.42-131.96,28.02c-97.68,7.91-196.98-2.95-293.28,15.27
	c-229.16,43.37-392.66,334-402.9,550.41c-16.66,352.36,200.06,704.44,522.17,848.27c98.7,44.07,204.55,69.64,310.29,92.11
	c160.11,34.02,324.77,61.57,486.94,39.32c393.97-54.04,519.79-342.19,353.17-683.83c-67.65-138.71-146.78-286.87-118.98-438.67
	c14.28-77.99,55.85-147.86,83.97-222c74.17-195.46,61.46-621.01-182.91-702.37c-59.43-19.77-124.21-16.22-185.82-4.97
	c-73.23,13.37-148.57,40.05-195.39,97.92c-65.88,81.43-59,202.81-119.35,288.43C1297.22,593.56,1252.34,622.97,1202.06,641.97z"/>
</svg>
