<?xml version="1.0" encoding="utf-8"?>
<!-- Generator: Adobe Illustrator 23.0.1, SVG Export Plug-In . SVG Version: 6.00 Build 0)  -->
<svg version="1.1" id="Layer_1" xmlns="http://www.w3.org/2000/svg" xmlns:xlink="http://www.w3.org/1999/xlink" x="0px" y="0px"
	 viewBox="0 0 5154.66 1414.73" style="enable-background:new 0 0 5154.66 1414.73;" xml:space="preserve">
<style type="text/css">
	.st0{fill:none;stroke:#F26B7A;stroke-width:4.386;stroke-miterlimit:10;}
</style>
<path class="st0" d="M109.4,470.85c37.25-121.8,234.54-162.29,629.12-243.26c354.22-72.69,455.02-51.56,520.08-29.36
	c164.55,56.16,232.28,164.22,318.76,243.26c271.63,248.26,593.95,87.5,1346.33,113.24c815.24,27.89,905.08,232.65,1375.69,96.47
	c340.59-98.56,571.61-286.28,650.1-205.51c67.29,69.25-7.64,304.87-150.99,452.97c-291.73,301.39-695.52,63.27-1665.08,88.08
	c-879.2,22.49-1166.22,234.12-1547.65-16.78C1347.14,813,1306.35,629.47,1065.67,596.68C711.85,548.47,480.32,901.55,256.2,785.41
	C143.6,727.07,77.96,573.66,109.4,470.85z"/>
</svg>
