<?xml version="1.0" encoding="utf-8"?>
<!-- Generator: Adobe Illustrator 23.0.1, SVG Export Plug-In . SVG Version: 6.00 Build 0)  -->
<svg version="1.1" id="Layer_1" xmlns="http://www.w3.org/2000/svg" xmlns:xlink="http://www.w3.org/1999/xlink" x="0px" y="0px"
	 viewBox="0 0 1345.13 1061.98" style="enable-background:new 0 0 1345.13 1061.98;" xml:space="preserve">
<style type="text/css">
	.st0{fill:#CDDE61;}
</style>
<path class="st0" d="M1071.05,92.33c-65.94-9.2-129.92,22.4-195.4,34.4c-80.25,14.71-162.6-0.23-242.99-14.16
	S469.2,85.76,389.77,104.4s-155.18,76.48-170.06,156.7c-15.73,84.79,43.19,171.46,121.97,206.56s171.21,26.46,252.45-2.49
	c31.36-11.18,62-25.31,94.83-30.84c73.63-12.42,154.61,25.81,186.8,93.19c32.19,67.38,8.08,158.15-56.19,196.18
	c-34.07,20.16-77.4,26.83-103.07,56.96c-27.66,32.47-24.01,84,0.58,118.86c24.59,34.86,65.64,54.95,107.22,64.47
	c39.28,9,82.89,9.12,117.23-11.97c66.36-40.76,67.76-133.8,78.31-210.96c8.69-63.64,30.71-128.62,78.4-171.65
	c74.25-66.98,203.98-101.52,181.81-228.8C1262.18,237.98,1181.88,107.79,1071.05,92.33z"/>
</svg>
