<?xml version="1.0" encoding="utf-8"?>
<!-- Generator: Adobe Illustrator 23.0.1, SVG Export Plug-In . SVG Version: 6.00 Build 0)  -->
<svg version="1.1" id="Layer_1" xmlns="http://www.w3.org/2000/svg" xmlns:xlink="http://www.w3.org/1999/xlink" x="0px" y="0px"
	 viewBox="0 0 4608.98 1645.61" style="enable-background:new 0 0 4608.98 1645.61;" xml:space="preserve">
<style type="text/css">
	.st0{fill:none;stroke:#F26B7A;stroke-width:4.386;stroke-miterlimit:10;}
</style>
<path class="st0" d="M255.75,934.58c2.1-196.02,545.05-520.14,1072.42-315.89c180.46,69.89,258.84,162.82,447.69,154.11
	c276.82-12.76,375.76-224.74,609.57-356.61c476.13-268.54,569.16,326.62,1106.52,162c426.64-130.7,642.07-589.82,776.84-340.19
	c76.46,141.62,98.13,457.97,41.68,656.09c-99.42,348.93-392.34,159.8-1042.1,178.2c-586.71,16.61-540.21,176.26-924.63,113.4
	c-556.8-91.05-609.06-418.58-966.31-275.39c-273.5,109.61-382.65,357.59-682.1,323.99C492.32,1211.5,254.35,1065.21,255.75,934.58z"
	/>
</svg>
