<?xml version="1.0" encoding="utf-8"?>
<!-- Generator: Adobe Illustrator 23.0.1, SVG Export Plug-In . SVG Version: 6.00 Build 0)  -->
<svg version="1.1" id="Layer_1" xmlns="http://www.w3.org/2000/svg" xmlns:xlink="http://www.w3.org/1999/xlink" x="0px" y="0px"
	 viewBox="0 0 1920 1347.14" style="enable-background:new 0 0 1920 1347.14;" xml:space="preserve">
<style type="text/css">
	.st0{fill:#F16979;}
</style>
<path class="st0" d="M565.52,787.27c3.95,51.57,31.62,121,71.1,154.58c17.69,15.04,36.52,30.64,59.38,34.74
	c38.45,6.9,76.2-22.68,90.84-58.89c14.63-36.22,11.23-77.02,4.99-115.58c-5.15-31.85-12.06-64.6-4.55-95.98
	c14.73-61.47,87.85-67.92,140.93-69.99c15.15-0.59,30.6,0.2,44.94,5.15c38.7,13.37,60.69,52.8,88.13,83.2s76.51,53.07,107.43,26.22
	c14.63-12.7,20.19-33.21,20.35-52.59c0.29-33.01-13.43-65.91-37.08-88.94c-20.13-19.6-46.28-31.68-68.71-48.6
	c-22.43-16.92-42.27-42.01-40.26-70.04c2.71-37.82,42.71-62.93,51.96-99.7c8.14-32.32-9.56-65.82-32.21-90.27
	c-43.69-47.16-108.56-73.91-172.79-71.24c-34.68,1.44-70.37,11.91-95.08,36.28s-35.47,64.54-19.28,95.24
	c9.62,18.24,27,31.08,38.81,47.99c25.17,36.07,19.36,90.35-12.88,120.27c-27.44,25.46-66.91,31.75-101.56,45.91
	C617.07,608.9,558.69,697.98,565.52,787.27z"/>
</svg>
