<?xml version="1.0" encoding="utf-8"?>
<!-- Generator: Adobe Illustrator 23.0.1, SVG Export Plug-In . SVG Version: 6.00 Build 0)  -->
<svg version="1.1" id="Layer_1" xmlns="http://www.w3.org/2000/svg" xmlns:xlink="http://www.w3.org/1999/xlink" x="0px" y="0px"
	 viewBox="0 0 1470.78 1172.21" style="enable-background:new 0 0 1470.78 1172.21;" xml:space="preserve">
<style type="text/css">
	.st0{fill:#CDDE61;}
</style>
<path class="st0" d="M193.19,560.97c-44.22-25.63-69.19-77.68-70.25-128.78c-1.06-51.1,19.2-100.87,48.32-142.87
	c60.36-87.07,148.1-152.36,257.58-126.21c67.61,16.15,131.74,51.17,201.25,51.37c88.46,0.26,168.47-55.93,256.66-62.69
	c132.44-10.15,258.8,114.08,250.9,246.67c-5.12,85.85-56.99,171.98-28.49,253.12c34.38,97.87,150.9,103.43,190.65,194.59
	c20.42,46.82,18.28,102.89-5.64,148.02c-23.23,43.84-72.56,77.88-121.07,67.45c-41.74-8.98-71.62-47.01-112.22-60.21
	c-49.61-16.12-102.5,7.77-154.55,11.07c-195.04,12.38-218.28-220.89-304.01-341.38c-44.35-62.35-119.99-102.16-196.66-104.74
	C333.91,563.96,261.24,600.41,193.19,560.97z"/>
</svg>
