<?xml version="1.0" encoding="utf-8"?>
<!-- Generator: Adobe Illustrator 23.0.1, SVG Export Plug-In . SVG Version: 6.00 Build 0)  -->
<svg version="1.1" xmlns="http://www.w3.org/2000/svg" xmlns:xlink="http://www.w3.org/1999/xlink" x="0px" y="0px"
	 viewBox="0 0 1579.07 1380.35" style="enable-background:new 0 0 1579.07 1380.35;" xml:space="preserve">
<style type="text/css">
	.st0{fill:#CDDE61;}
</style>
<g id="Layer_1">
	<path class="st0" d="M221.93,384.69c181.43-227.38,881.54,113.82,843.09,339.59c-15.75,92.51-168.7,220.13-350.06,259.82
		c-60.77,13.3-280.35,61.35-438.8-69.64C110.14,777.21,109.09,526.1,221.93,384.69z"/>
</g>
<g id="Layer_2">
	<path class="st0" d="M482.74,1173.82c-32.9-9.44-63.29-32.92-73.62-65.56c-13.88-43.89,12.12-92.49,49.64-119.17
		c37.51-26.68,84.15-36.34,129.31-45.23s91.8-18.24,129.64-44.46c46.72-32.37,75.45-87.49,125.54-114.36
		c63.23-33.92,151.71-6.79,185.08,56.73c29.17,55.54,18,126.34,49.96,180.32c28.09,47.44,85.68,71.99,140.81,71.58
		c31.83-0.24,66.04-9.33,85.54-34.49c34.58-44.63,5.68-109.16-26.71-155.41c-32.4-46.24-69.84-102.12-48.59-154.43
		c14.16-34.85,55.53-56.14,92.12-47.41c28.72,6.86,51.13,28.85,70.67,50.98c22.99,26.03,44.45,53.87,59.13,85.35
		c37,79.36,24.77,179.33-30.28,247.42s-150.24,101-235.59,81.44c-52.17-11.96-98.98-41.35-150.95-54.15
		C850.04,1067.57,667.61,1226.85,482.74,1173.82z"/>
</g>
</svg>
