
<svg xmlns="http://www.w3.org/2000/svg" xmlns:xlink="http://www.w3.org/1999/xlink" width="436" height="443" preserveAspectRatio="xMidYMid meet" viewBox="0 0 436 443">
    <defs>
        <mask maskContentUnits="objectBoundingBox" maskUnits="objectBoundingBox" id="masking">
            <path fill="white"  d="M192.808 2.523 C 185.112 6.660,174.017 15.997,156.002 33.499 C 146.646 42.589,133.417 54.821,126.606 60.682 C 119.794 66.543,108.661 77.065,101.866 84.064 C 78.590 108.039,38.992 148.046,35.298 151.320 C 26.905 158.758,9.066 179.893,5.356 186.794 C 4.300 188.759,2.663 191.796,1.718 193.543 C -2.401 201.156,1.087 216.741,9.527 228.440 C 27.841 253.827,94.305 322.827,119.745 342.864 C 134.699 354.642,145.160 363.860,162.742 380.749 C 191.009 407.904,204.558 412.271,221.086 399.553 C 227.370 394.717,277.504 344.302,292.257 327.982 C 297.731 321.927,315.718 303.349,332.229 286.697 C 348.740 270.046,364.860 253.275,368.051 249.428 C 371.242 245.582,377.407 238.357,381.751 233.373 C 409.683 201.327,407.773 189.421,369.266 155.541 C 356.120 143.974,344.347 131.841,337.631 122.936 C 331.319 114.566,321.319 103.718,305.072 87.615 C 295.909 78.532,283.098 65.173,276.605 57.927 C 263.236 43.012,228.125 9.762,221.874 6.099 C 210.833 -0.371,200.547 -1.637,192.808 2.523 "  fill-rule="evenodd">
            </path>
        </mask>
    </defs>
</svg>